<?xml version="1.0" encoding="utf-8"?>
<!-- Generator: Adobe Illustrator 24.3.0, SVG Export Plug-In . SVG Version: 6.00 Build 0)  -->
<svg version="1.1" id="Layer_1" xmlns="http://www.w3.org/2000/svg" xmlns:xlink="http://www.w3.org/1999/xlink" x="0px" y="0px"
	 viewBox="0 0 200 200" style="enable-background:new 0 0 200 200;" xml:space="preserve">
<style type="text/css">
	.st0{fill:none;}
	.st1{fill:none;stroke:#FFFFFF;}
	.st2{fill:#FFFFFF;}
</style>
<g id="facebook" transform="translate(-410 -795)">
	<g id="Ellipse_2" transform="translate(410 795)">
		<circle class="st0" cx="100.3" cy="99.6" r="99"/>
		<circle class="st1" cx="100.3" cy="99.6" r="96.5"/>
	</g>
	<path id="facebook_3_" class="st2" d="M489.5,902.3h10v36.9c0,1.6,1.3,3,3,3l0,0h15.9c1.6,0,3-1.3,3-3l0,0v-36.9h9.5
		c1.5,0,2.8-1.1,3-2.6l2-15.8c0.2-1.6-1-3.1-2.6-3.3c-0.1,0-0.3,0-0.4,0h-11.4c0.4-9.8-1.7-12.7,4.6-12.7c4.3-0.5,11.1,1.7,11.1-3
		v-14.2c0-1.5-1.1-2.7-2.6-2.9c-4.1-0.5-8.2-0.7-12.3-0.7c-27.8,0-22,30.8-22.7,33.4h-10c-1.6,0-3,1.3-3,3v15.8
		C486.6,901,487.9,902.3,489.5,902.3z M492.5,886.5h10c1.6,0,3-1.3,3-3c0,0,0,0,0,0V871c0-11.4,6.1-18,16.8-18
		c3.5,0,6.7,0.2,8.9,0.3v8.5c-1.6,0.8-15.7-3.5-15.7,10.7v10.9c0,1.6,1.3,3,3,3l0,0h11l-1.2,9.9h-9.8c-1.6,0-3,1.3-3,3l0,0v36.9
		h-9.9v-36.9c0-1.6-1.3-3-3-3l0,0h-10V886.5z"/>
</g>
</svg>
