<?xml version="1.0" encoding="utf-8"?>
<!-- Generator: Adobe Illustrator 24.3.0, SVG Export Plug-In . SVG Version: 6.00 Build 0)  -->
<svg version="1.1" id="Layer_1" xmlns="http://www.w3.org/2000/svg" xmlns:xlink="http://www.w3.org/1999/xlink" x="0px" y="0px"
	 viewBox="0 0 200 200" style="enable-background:new 0 0 200 200;" xml:space="preserve">
<style type="text/css">
	.st0{fill:none;}
	.st1{fill:none;stroke:#FFFFFF;}
	.st2{fill:#FFFFFF;}
</style>
<g id="linkedin" transform="translate(-410 -795)">
	<g id="Ellipse_2" transform="translate(410 795)">
		<circle class="st0" cx="100.3" cy="99.6" r="99"/>
		<circle class="st1" cx="100.3" cy="99.6" r="96.5"/>
	</g>
	<g id="linkedin-2" transform="translate(422 804.6)">
		<path id="Path_4780" class="st2" d="M122.2,133.6h18.5c1.6,0,3-1.3,3-3l0,0c-1.4-31.1,7.3-64-25.1-64c-5.3-0.1-10.5,1.7-14.8,5
			c0-5.8-6.3-2.6-20.7-3.5c-1.6,0-3,1.3-3,3l0,0c1.2,56.1-2.7,62.5,3,62.5h18.5c5.4,0,2-7.6,3-32.4c0-10.3,3-12.3,8.1-12.3
			c5.7,0,6.6,4,6.6,12.8C120.3,126.1,116.9,133.6,122.2,133.6z M112.6,83c-17.8,0-14,19.6-14,44.7H86.1V74.1h11.8v5.2
			c0.1,1.7,1.6,3,3.3,2.9c1-0.1,2-0.6,2.5-1.5c3.1-5.2,8.8-8.3,14.8-8c14,0,19.2,6.9,19.2,25.3v29.7h-12.5
			C125.2,99.4,128.2,82.9,112.6,83L112.6,83z"/>
		<path id="Path_4781" class="st2" d="M53,68.2c-5.6,0-1.8,6.3-3,62.5c0,1.6,1.3,3,3,3c0,0,0,0,0,0h18.5c5.6,0,1.8-6.3,3-62.5
			C74.5,66,67.1,69,53,68.2z M68.5,127.7H56V74.1h12.5V127.7z"/>
		<path id="Path_4782" class="st2" d="M62.3,38.6c-18.1,0-18,27.4,0,27.4S80.4,38.6,62.3,38.6z M62.3,60.1c-4.3-0.1-7.7-3.7-7.6-8
			c0.1-4.1,3.4-7.5,7.6-7.6c4.3,0.1,7.7,3.7,7.6,8C69.8,56.6,66.4,60,62.3,60.1z"/>
	</g>
</g>
</svg>
