<?xml version="1.0" encoding="utf-8"?>
<!-- Generator: Adobe Illustrator 24.3.0, SVG Export Plug-In . SVG Version: 6.00 Build 0)  -->
<svg version="1.1" id="Layer_1" xmlns="http://www.w3.org/2000/svg" xmlns:xlink="http://www.w3.org/1999/xlink" x="0px" y="0px"
	 viewBox="0 0 400 200" style="enable-background:new 0 0 400 200;" xml:space="preserve">
<style type="text/css">
	.st0{fill:#3D82AB;}
	.st1{enable-background:new    ;}
	.st2{fill:#5E5E5E;}
	.st3{fill:none;stroke:#5E5E5E;stroke-width:0.5;stroke-miterlimit:10;}
</style>
<path d="M354,71c-0.9-2.7-2.6-5.8-4.7-7.9c-6.2-6.2-16.5-6.9-24.2-3.6c-2.7,1.2-6.7,3.5-8.2,6.2c-2.3-1.8-2.6-3.4-6.7-5.7
	c-7.8-4.2-18.4-2.9-24.7,3.3c-0.2-1.4-0.5-2.5-1.5-3.5c-2-2.1-6.1-2-8,0.2c-1.1,1.3-1.3,2.9-1.3,4.5v44.6c0,3.3,1.2,6.2,5,6.2
	c0.7,0,1.5,0,2.2-0.2c4.6-1.3,3.6-7.5,3.6-11.1V84.9c0-5.3-0.5-9.4,3.4-13.7c4.4-4.9,13.1-5.4,17.7-0.5c2.4,2.6,3.2,6.4,3.2,9.8v29
	c0,1.3,0,2.2,0.7,3.4c0.5,0.9,1.5,1.7,2.4,2.1c1.7,0.7,4.6,0.3,6-0.9c1.3-1.3,1.5-2.5,1.5-4.3V86.6c0-4.5-0.3-9.4,2.1-13.4
	c1.1-1.9,3.3-3.9,5.3-4.8c4.2-1.9,10.1-1.1,13.4,2.2c2.5,2.5,3.4,6.2,3.4,9.6v29.3c0,3.9,1.7,6,5.8,6c3.8-0.1,5-2.9,5-6.2v-22
	C355.4,82.2,355.6,75.9,354,71z"/>
<g>
	<path d="M189.1,65c-10.8-9.8-28.3-9.7-39.1,0c-6,5.4-9.3,13.5-9.3,21.6v47c0,1.8,0.2,3.4,1.5,4.8c2.2,2.3,6.6,1.9,8.4-0.7
		c0.8-1.2,0.9-2.6,0.9-4.1v-27.1c2.4,2.8,5.1,5,8.4,6.7c8.8,4.4,20.4,3.3,28.1-2.9c3.7-3,6.5-7,8.3-11.4c1-2.5,2-6.7,2-9.3v-6.5
		C197.3,76.2,194.2,69.6,189.1,65z M179.7,103.4c-4,2.7-7.1,3-11.8,2.9c-2.2,0-4.5-0.6-6.5-1.6c-1.8-0.9-3.6-2-5-3.4
		c-6-6-7.1-16.2-3.5-23.7c2.3-4.8,6.4-8.2,11.4-9.7l3.4-0.6c2-0.2,4.8,0,6.7,0.6c3.8,1.1,7,3.1,9.5,6.3
		C190.8,82.8,189,97.1,179.7,103.4z"/>
</g>
<g>
	<path d="M255.5,65.8c-12-11.5-32.2-10.8-42.8,2.3c-4.8,6-6.4,12.6-6.3,20.2c0,2.8,0.7,6.2,1.6,8.9c3.9,11.6,13.5,18.9,25.8,18.7
		c1.8,0,5.2-0.5,7-1.1c5.5-1.5,8.8-4.4,12.7-8.3v3.1c0,2,0.4,3.7,2.2,5c1,0.7,1.7,0.8,2.9,0.8c3.2,0,5.5-1.7,5.5-5V85.1
		C263.9,78.3,260.4,70.5,255.5,65.8z M253.6,88.2c0,6.3-3.6,12.3-8.9,15.6c-3.7,2.3-6.9,2.5-11,2.4c-6.3-0.1-12.5-4.7-15.2-10.3
		c-1.6-3.5-1.9-6.3-1.9-10.1c0-6.7,3.7-13.3,9.6-16.5c2.6-1.4,4.4-1.8,7.2-2.2c2.3-0.2,4.7,0,7,0.6c7.4,2,13.1,9.4,13.2,17.1
		L253.6,88.2L253.6,88.2z"/>
</g>
<path class="st0" d="M119.3,77.1c-0.3-0.5-1.3-1.1-1.9-1.4l-3.8-2.3L95.3,62.5l-12.7-7.6c-1.6-1-3.6-2.7-5.5-2.2L65.6,59L44.7,70.6
	l-6.2,3.5c-0.8,0.5-2.4,1.2-2.9,1.9c-0.6,0.8-0.5,1.8-0.5,2.7v14.9l-0.2,3.6v15.5l-0.2,3.8v5.3c0,0.6-0.1,1.4,0.2,1.9
	c0.3,0.6,1.3,1.1,1.9,1.4l3.8,2.2l19,11.1l13,7.6c1.2,0.7,3.7,2.6,5,2.1l3.8-2.1l7-3.9l21.4-12.2l6.7-3.8c0.6-0.4,2.3-1.2,2.6-1.7
	c0.3-0.5,0.2-1.3,0.2-1.8v-15.1l0.2-3.6V79.1C119.6,78.5,119.6,77.6,119.3,77.1z M91.7,61.6l16.8,10l9.8,5.8l-3.5,7.4L109,96.3
	l-6.7-9.4l-14.6-21l-5.3-7.7c-0.6-0.9-1.7-2.1-1.7-3.1L91.7,61.6z M78.1,53.9l4.9,7l11.6,16.8l8.2,11.8l4.6,6.7l-13.3-6.9l-19-10
	L66.9,75l-3.1-1.6c0.6-1.6,4-6,5.3-7.7l5.5-7.4C75.6,56.9,76.9,54.9,78.1,53.9z M107.3,97.6l-8.4,2.1l-14.4,3.4l-22.1,5.3l-12,2.9
	l2.7-7.9l6.3-18.2l3.7-10.8l8.9,4.5l15.4,8.2l12.7,6.6L107.3,97.6z M46.1,71.1l10.8-6l12.5-7l6.2-3.3L66.8,67l-4.1,5.3l-2.3,0.5
	l-4.3,0.5l-17.3,1.8L46.1,71.1z M45.2,75.8l17-2l-5,14.6l-1.6,4.8l-6.1,17.3l-1.8-4.3L44.6,98l-8.1-21.3L45.2,75.8z M35.8,114.9
	l0.2-3.8V94.7l0.2-4.1v-5.8l0.2-5.3l3.6,9.8l5.1,13.4l2.3,6c0.3,0.7,1,2.2,0.8,2.9c-0.2,0.9-2.4,2.4-3.2,3.1l-9.4,7.5v-7.3
	C35.6,114.9,35.8,114.9,35.8,114.9z M64.6,140.1L47.3,130l-10.8-6.2c0.7-1.4,2.2-2.3,3.4-3.3l6.2-5.1c0.7-0.5,2.5-2.3,3.3-2.1
	c0.6,0.2,1.5,1.6,1.9,2.1l4.4,5.8L67.8,137c1.3,1.7,5.6,7,6.3,8.6L64.6,140.1z M77.1,146.8h-0.5l-7.1-9.4l-11.3-14.8l-4.6-6
	c-1-1.3-2.4-2.8-2.9-4.3l5-1.1l12.5-3l25-6l14.4-3.4l-7.5,12l-15.2,23.8L77.1,146.8z M115.3,125.4l-6.7,3.9l-19.2,10.9l-6.5,3.7
	l-3.8,1.9l2.1-3.6l5.1-7.9l15.1-23.5l7.3-11.5h0.5l6.6,18l1.6,4.3l0.5,2.1L115.3,125.4z M118.4,83.9v26.6l-0.3,4.2v5.8
	c-0.7-1-1.5-3.8-2-5l-3.7-9.8l-2.6-7.2c-0.2-1.2,1.3-3.6,1.9-4.8l4.4-8.9c0.7-1.3,1.4-3.3,2.5-4.3L118.4,83.9z"/>
<g class="st1">
	<path class="st2" d="M217,128.4c0.8,0.5,1.5,1.2,2,2c0.5,0.9,0.7,1.8,0.7,2.8s-0.2,2-0.7,2.9c-0.5,0.9-1.2,1.5-2,2
		c-0.9,0.5-1.8,0.7-2.8,0.7s-2-0.2-2.8-0.7c-0.9-0.5-1.5-1.2-2-2c-0.5-0.9-0.7-1.8-0.7-2.9v-4.7c0-0.1,0-0.1,0-0.2v-4.5
		c0-0.2,0.1-0.4,0.2-0.6s0.3-0.2,0.6-0.2c0.2,0,0.4,0.1,0.6,0.2c0.1,0.1,0.2,0.3,0.2,0.6v5.9c0.5-0.6,1.1-1.1,1.8-1.5
		c0.7-0.4,1.5-0.6,2.4-0.6C215.3,127.6,216.2,127.9,217,128.4z M216.2,136.9c0.6-0.4,1.1-0.9,1.5-1.5c0.4-0.6,0.5-1.4,0.5-2.1
		s-0.2-1.5-0.5-2.1c-0.4-0.6-0.8-1.1-1.5-1.5c-0.6-0.4-1.3-0.5-2.1-0.5c-1.1,0-2,0.3-2.7,1s-1.2,1.5-1.3,2.6c0,0,0,0.1,0,0.1
		c0,0.1,0,0.3,0,0.5c0,0.8,0.2,1.5,0.5,2.1c0.4,0.6,0.8,1.1,1.5,1.5c0.6,0.4,1.3,0.6,2.1,0.6C214.9,137.4,215.5,137.2,216.2,136.9z"
		/>
	<path class="st2" d="M231.5,128.4c0,0.1,0,0.2-0.1,0.4l-6.5,14.3c-0.1,0.3-0.3,0.5-0.6,0.5c-0.1,0-0.3,0-0.4-0.1
		c-0.3-0.1-0.5-0.3-0.5-0.6c0-0.1,0-0.2,0.1-0.4l2-4.4v0l-4.5-9.3c-0.1-0.1-0.1-0.2-0.1-0.4c0-0.3,0.1-0.5,0.4-0.6
		c0.1-0.1,0.2-0.1,0.4-0.1c0.3,0,0.5,0.1,0.6,0.4l3.9,8.3l3.7-8.2c0.1-0.3,0.3-0.4,0.6-0.4c0.1,0,0.2,0,0.4,0.1
		C231.4,127.9,231.5,128.1,231.5,128.4z"/>
</g>
<g class="st1">
	<path class="st2" d="M287.3,132.3c0,2.2-0.6,3.9-1.8,5.1c-1.2,1.2-3,1.8-5.2,1.8h-3.7v-13.5h4.1c2.1,0,3.7,0.6,4.9,1.7
		C286.8,128.6,287.3,130.2,287.3,132.3z M285.7,132.4c0-1.8-0.4-3.1-1.3-4c-0.9-0.9-2.2-1.3-3.9-1.3h-2.3v10.8h1.9
		c1.9,0,3.3-0.5,4.2-1.4C285.2,135.5,285.7,134.2,285.7,132.4z"/>
</g>
<g class="st1">
	<path class="st2" d="M293.6,139.4c-1.5,0-2.7-0.5-3.5-1.4c-0.9-0.9-1.3-2.2-1.3-3.8c0-1.6,0.4-2.9,1.2-3.9c0.8-1,1.9-1.4,3.2-1.4
		c1.3,0,2.3,0.4,3,1.3c0.7,0.8,1.1,1.9,1.1,3.3v1h-7c0,1.2,0.3,2.1,0.9,2.7c0.6,0.6,1.4,0.9,2.4,0.9c1.1,0,2.2-0.2,3.2-0.7v1.4
		c-0.5,0.2-1.1,0.4-1.5,0.5S294.3,139.4,293.6,139.4z M293.2,130.2c-0.8,0-1.5,0.3-1.9,0.8c-0.5,0.5-0.8,1.3-0.9,2.2h5.3
		c0-1-0.2-1.7-0.6-2.2S294,130.2,293.2,130.2z"/>
</g>
<g class="st1">
	<path class="st2" d="M305.9,136.4c0,0.9-0.4,1.7-1.1,2.2c-0.7,0.5-1.7,0.8-3,0.8c-1.3,0-2.4-0.2-3.1-0.6v-1.4
		c0.5,0.2,1,0.4,1.6,0.6c0.6,0.1,1.1,0.2,1.6,0.2c0.8,0,1.4-0.1,1.8-0.4c0.4-0.3,0.6-0.6,0.6-1.2c0-0.4-0.2-0.7-0.5-1
		c-0.3-0.3-1-0.6-2-1c-0.9-0.4-1.6-0.7-2-0.9c-0.4-0.3-0.7-0.6-0.9-0.9c-0.2-0.3-0.3-0.7-0.3-1.2c0-0.8,0.3-1.5,1-2
		c0.7-0.5,1.6-0.7,2.8-0.7c1.1,0,2.2,0.2,3.2,0.7l-0.5,1.2c-1-0.4-1.9-0.6-2.8-0.6c-0.7,0-1.3,0.1-1.6,0.3c-0.4,0.2-0.6,0.5-0.6,0.9
		c0,0.3,0.1,0.5,0.2,0.7s0.4,0.4,0.7,0.5c0.3,0.2,0.9,0.4,1.8,0.7c1.2,0.4,2,0.9,2.4,1.3S305.9,135.8,305.9,136.4z"/>
</g>
<g class="st1">
	<path class="st2" d="M309.5,134.4c0.3-0.4,0.7-0.9,1.2-1.5l3.3-3.5h1.8l-4.1,4.3l4.4,5.8h-1.9l-3.6-4.8l-1.2,1v3.8H308v-14.4h1.5
		v7.6C309.5,133.2,309.5,133.7,309.5,134.4L309.5,134.4z"/>
</g>
<g class="st1">
	<path class="st2" d="M328.8,139.6H327l-7.4-11.3h-0.1c0.1,1.3,0.1,2.5,0.1,3.7v7.7h-1.5v-13.5h1.8l7.4,11.3h0.1
		c0-0.2,0-0.7-0.1-1.6c0-0.9-0.1-1.5,0-1.9v-7.7h1.5V139.6z"/>
</g>
<g class="st1">
	<path class="st2" d="M339.7,134.5c0,1.6-0.4,2.9-1.2,3.9c-0.8,0.9-2,1.4-3.4,1.4c-0.9,0-1.7-0.2-2.4-0.6c-0.7-0.4-1.2-1-1.6-1.8
		c-0.4-0.8-0.6-1.7-0.6-2.8c0-1.7,0.4-2.9,1.2-3.9c0.8-0.9,2-1.4,3.4-1.4c1.4,0,2.5,0.5,3.4,1.4
		C339.3,131.6,339.7,132.9,339.7,134.5z M332,134.5c0,1.3,0.3,2.3,0.8,3c0.5,0.7,1.3,1,2.3,1c1,0,1.8-0.3,2.3-1
		c0.5-0.7,0.8-1.7,0.8-3c0-1.3-0.3-2.3-0.8-2.9c-0.5-0.7-1.3-1-2.3-1c-1,0-1.8,0.3-2.3,1C332.3,132.2,332,133.2,332,134.5z"/>
</g>
<g class="st1">
	<path class="st2" d="M351.3,139.6l-1.9-5.9c-0.1-0.4-0.3-1.2-0.7-2.5h-0.1c-0.2,1.1-0.5,1.9-0.6,2.5l-1.9,5.9h-1.8l-2.8-10.1h1.6
		c0.7,2.5,1.1,4.5,1.5,5.8s0.5,2.2,0.6,2.7h0.1c0.1-0.4,0.2-0.8,0.3-1.4c0.2-0.6,0.3-1,0.4-1.3l1.9-5.8h1.7l1.8,5.8
		c0.3,1.1,0.6,1.9,0.7,2.7h0.1c0-0.2,0.1-0.6,0.2-1c0.1-0.5,0.7-2.9,1.9-7.5h1.6l-2.8,10.1H351.3z"/>
</g>
<g>
	<path class="st2" d="M266.6,127.5c0-0.1-0.1-0.2-0.2-0.2l-4.3-3.9c-0.4-0.3-0.9-0.4-1.3-0.2l-14.8,4.5c-0.1,0-0.2,0-0.2,0
		c-0.2,0.1-0.4,0.3-0.4,0.6v8.6c0,0.2,0.1,0.5,0.3,0.6l4.6,4.6c0.1,0.1,0.3,0.2,0.5,0.2c0.1,0,0.2,0,0.3,0c0.3-0.1,0.4-0.4,0.4-0.6
		V133l9.5-2.8v1.7c0,0.2,0.1,0.5,0.3,0.6l4.6,4.6c0.1,0.1,0.3,0.2,0.5,0.2c0.1,0,0.2,0,0.3,0c0.2-0.1,0.4-0.4,0.4-0.6v-8.8
		L266.6,127.5z M250.5,140.8l-4-4v-7.6l4,4V140.8z M250.7,131.9l-3.3-3.6l13.7-4.2h0.1c0.1,0,0.3,0,0.4,0.1l4,3.6h-0.1l-3.4,1
		l-1,0.3L250.7,131.9z M266,135.8l-4-4v-2l4-1.2V135.8z"/>
</g>
<line class="st3" x1="272" y1="118" x2="272" y2="146.7"/>
</svg>
