<svg width="100" height="100" viewBox="0 0 100 100" fill="none" xmlns="http://www.w3.org/2000/svg">
<path fill-rule="evenodd" clip-rule="evenodd" d="M87.2192 88H89.0356C89.5884 88 90.0356 88.4473 90.0356 89C90.0356 89.5527 89.5884 90 89.0356 90H11.0356C10.4829 90 10.0356 89.5527 10.0356 89C10.0356 88.4473 10.4829 88 11.0356 88H14.8237V82.3303C12.1081 81.8545 10.0356 79.4846 10.0356 76.6348C10.0356 74.4448 11.2588 72.5352 13.0574 71.5522C11.2588 70.5693 10.0356 68.6597 10.0356 66.4697C10.0356 63.2773 12.6323 60.6807 15.8237 60.6807C19.0151 60.6807 21.6118 63.2773 21.6118 66.4697C21.6118 68.6597 20.3887 70.5693 18.59 71.5522C20.3887 72.5352 21.6118 74.4448 21.6118 76.6348C21.6118 79.4846 19.5394 81.8545 16.8237 82.3303V88H29.2407V82.3303C26.5251 81.8545 24.4526 79.4846 24.4526 76.6348C24.4526 73.4434 27.0493 70.8467 30.2407 70.8467C33.4321 70.8467 36.0288 73.4434 36.0288 76.6348C36.0288 79.4846 33.9564 81.8545 31.2407 82.3303V88H38.8687V43.1875C38.8687 42.6348 39.3159 42.1875 39.8687 42.1875H48.4067V20.625C48.4067 20.0723 48.854 19.625 49.4067 19.625H59.1528V11C59.1528 10.4473 59.6001 10 60.1528 10C60.7056 10 61.1528 10.4473 61.1528 11V19.625H70.5737C71.1265 19.625 71.5737 20.0723 71.5737 20.625V29.5149L85.8276 23.4551C86.1372 23.3232 86.4907 23.3545 86.771 23.541C87.0513 23.7266 87.2192 24.0391 87.2192 24.375V88ZM30.2407 72.8467C28.1519 72.8467 26.4526 74.5459 26.4526 76.6348C26.4526 78.7236 28.1519 80.4229 30.2407 80.4229C32.3296 80.4229 34.0288 78.7236 34.0288 76.6348C34.0288 74.5459 32.3296 72.8467 30.2407 72.8467ZM19.6118 66.4697C19.6118 64.3809 17.9126 62.6807 15.8237 62.6807C13.7349 62.6807 12.0356 64.3809 12.0356 66.4697C12.0356 68.5586 13.7349 70.2578 15.8237 70.2578C17.9126 70.2578 19.6118 68.5586 19.6118 66.4697ZM15.8237 72.8467C13.7349 72.8467 12.0356 74.5459 12.0356 76.6348C12.0356 78.7236 13.7349 80.4229 15.8237 80.4229C17.9126 80.4229 19.6118 78.7236 19.6118 76.6348C19.6118 74.5459 17.9126 72.8467 15.8237 72.8467ZM79.5757 88H85.2192V25.8867L60.3179 36.4727V88H65.9624V77.9521C65.9624 77.3994 66.4097 76.9521 66.9624 76.9521H78.5757C79.1284 76.9521 79.5757 77.3994 79.5757 77.9521V88ZM67.9624 88H77.5757V78.9521H67.9624V88ZM69.5737 29.25V21.625H50.4067V29.25H69.5737ZM67.4922 31.25H50.4067V42.1875H58.3179V35.8115C58.3179 35.4102 58.5571 35.0479 58.9263 34.8916L67.4922 31.25ZM58.3179 44.1875H40.8687V88H58.3179V44.1875ZM79.9214 58.3984H65.6167C65.064 58.3984 64.6167 57.9512 64.6167 57.3984C64.6167 56.8457 65.064 56.3984 65.6167 56.3984H79.9214C80.4741 56.3984 80.9214 56.8457 80.9214 57.3984C80.9214 57.9512 80.4741 58.3984 79.9214 58.3984ZM46.6587 49C46.106 49 45.6587 49.4473 45.6587 50V52.6025C45.6587 53.1553 46.106 53.6025 46.6587 53.6025C47.2114 53.6025 47.6587 53.1553 47.6587 52.6025V50C47.6587 49.4473 47.2114 49 46.6587 49ZM51.5562 50C51.5562 49.4473 52.0034 49 52.5562 49C53.1089 49 53.5562 49.4473 53.5562 50V52.6025C53.5562 53.1553 53.1089 53.6025 52.5562 53.6025C52.0034 53.6025 51.5562 53.1553 51.5562 52.6025V50ZM46.6587 56.3984C46.106 56.3984 45.6587 56.8457 45.6587 57.3984V60.002C45.6587 60.5547 46.106 61.002 46.6587 61.002C47.2114 61.002 47.6587 60.5547 47.6587 60.002V57.3984C47.6587 56.8457 47.2114 56.3984 46.6587 56.3984ZM51.5562 57.3984C51.5562 56.8457 52.0034 56.3984 52.5562 56.3984C53.1089 56.3984 53.5562 56.8457 53.5562 57.3984V60.002C53.5562 60.5547 53.1089 61.002 52.5562 61.002C52.0034 61.002 51.5562 60.5547 51.5562 60.002V57.3984ZM46.6587 63.7979C46.106 63.7979 45.6587 64.2451 45.6587 64.7979V67.4004C45.6587 67.9531 46.106 68.4004 46.6587 68.4004C47.2114 68.4004 47.6587 67.9531 47.6587 67.4004V64.7979C47.6587 64.2451 47.2114 63.7979 46.6587 63.7979ZM51.5562 64.7979C51.5562 64.2451 52.0034 63.7979 52.5562 63.7979C53.1089 63.7979 53.5562 64.2451 53.5562 64.7979V67.4004C53.5562 67.9531 53.1089 68.4004 52.5562 68.4004C52.0034 68.4004 51.5562 67.9531 51.5562 67.4004V64.7979ZM46.6587 71.1973C46.106 71.1973 45.6587 71.6445 45.6587 72.1973V74.7998C45.6587 75.3525 46.106 75.7998 46.6587 75.7998C47.2114 75.7998 47.6587 75.3525 47.6587 74.7998V72.1973C47.6587 71.6445 47.2114 71.1973 46.6587 71.1973ZM51.5562 72.1973C51.5562 71.6445 52.0034 71.1973 52.5562 71.1973C53.1089 71.1973 53.5562 71.6445 53.5562 72.1973V74.7998C53.5562 75.3525 53.1089 75.7998 52.5562 75.7998C52.0034 75.7998 51.5562 75.3525 51.5562 74.7998V72.1973ZM46.6587 78.5957C46.106 78.5957 45.6587 79.043 45.6587 79.5957V82.1992C45.6587 82.752 46.106 83.1992 46.6587 83.1992C47.2114 83.1992 47.6587 82.752 47.6587 82.1992V79.5957C47.6587 79.043 47.2114 78.5957 46.6587 78.5957ZM51.5562 79.5957C51.5562 79.043 52.0034 78.5957 52.5562 78.5957C53.1089 78.5957 53.5562 79.043 53.5562 79.5957V82.1992C53.5562 82.752 53.1089 83.1992 52.5562 83.1992C52.0034 83.1992 51.5562 82.752 51.5562 82.1992V79.5957ZM65.6167 64.3984H79.9214C80.4741 64.3984 80.9214 63.9512 80.9214 63.3984C80.9214 62.8457 80.4741 62.3984 79.9214 62.3984H65.6167C65.064 62.3984 64.6167 62.8457 64.6167 63.3984C64.6167 63.9512 65.064 64.3984 65.6167 64.3984ZM79.9214 70.3984H65.6167C65.064 70.3984 64.6167 69.9512 64.6167 69.3984C64.6167 68.8457 65.064 68.3984 65.6167 68.3984H79.9214C80.4741 68.3984 80.9214 68.8457 80.9214 69.3984C80.9214 69.9512 80.4741 70.3984 79.9214 70.3984ZM65.6167 46.3008H79.9214C80.4741 46.3008 80.9214 45.8535 80.9214 45.3008C80.9214 44.748 80.4741 44.3008 79.9214 44.3008H65.6167C65.064 44.3008 64.6167 44.748 64.6167 45.3008C64.6167 45.8535 65.064 46.3008 65.6167 46.3008ZM79.9214 52.3008H65.6167C65.064 52.3008 64.6167 51.8535 64.6167 51.3008C64.6167 50.748 65.064 50.3008 65.6167 50.3008H79.9214C80.4741 50.3008 80.9214 50.748 80.9214 51.3008C80.9214 51.8535 80.4741 52.3008 79.9214 52.3008ZM38.3813 23.5234H32.4517C32.1392 21.8359 31.0493 20.3779 29.5044 19.6025C29.2983 15.9268 26.2603 13 22.5562 13C18.7183 13 15.5962 16.1406 15.5962 20V20.0215C12.5229 19.9707 9.96436 22.4521 9.96436 25.5439C9.96436 26.0967 10.4116 26.5439 10.9644 26.5439C11.5171 26.5439 11.9644 26.0967 11.9644 25.5439C11.9644 23.6006 13.5317 22.0195 15.4585 22.0195C15.7524 22.0195 16.063 22.0713 16.438 22.1816C16.7739 22.2812 17.1401 22.1973 17.3989 21.958C17.6577 21.7197 17.772 21.3633 17.7007 21.0195C17.6313 20.6865 17.5962 20.3438 17.5962 20C17.5962 17.2432 19.8208 15 22.5562 15C25.2905 15 27.5151 17.2432 27.5151 20L27.5103 20.1045C27.5093 20.1113 27.5034 20.2119 27.5034 20.2188C27.4839 20.6602 27.7573 21.0635 28.1753 21.208C29.5923 21.6973 30.5435 23.0303 30.5435 24.5234C30.5435 25.0762 30.9907 25.5234 31.5435 25.5234H38.3813C38.9341 25.5234 39.3813 25.0762 39.3813 24.5234C39.3813 23.9707 38.9341 23.5234 38.3813 23.5234ZM38.8687 38.3027C38.8687 37.2607 38.2036 36.3301 37.2153 35.9873C36.7974 35.8418 36.5239 35.4404 36.5435 34.999L36.5522 34.8408C36.5522 32.8604 34.9546 31.25 32.9917 31.25C31.0288 31.25 29.4312 32.8604 29.4312 34.8408C29.4312 35.0869 29.4565 35.334 29.5063 35.5752C29.5776 35.9199 29.4624 36.2764 29.2026 36.5137C28.9438 36.752 28.5776 36.8369 28.2417 36.7354C27.979 36.6572 27.7622 36.6211 27.561 36.6211C26.2163 36.6211 25.1226 37.7256 25.1226 39.083C25.1226 39.6357 24.6753 40.083 24.1226 40.083C23.5698 40.083 23.1226 39.6357 23.1226 39.083C23.1226 36.665 25.0454 34.6895 27.4351 34.623C27.5493 31.6406 29.9985 29.25 32.9917 29.25C35.9067 29.25 38.3052 31.5166 38.5347 34.3896C39.9546 35.1592 40.8687 36.6533 40.8687 38.3027C40.8687 38.8555 40.4214 39.3027 39.8687 39.3027C39.3159 39.3027 38.8687 38.8555 38.8687 38.3027Z" fill="#979797"/>
</svg>
