<svg width="190" height="190" viewBox="0 0 190 190" fill="none" xmlns="http://www.w3.org/2000/svg">
<rect width="190" height="190" rx="12" fill="#F8F7F6"/>
<path fill-rule="evenodd" clip-rule="evenodd" d="M132.184 133H134C134.553 133 135 133.447 135 134C135 134.553 134.553 135 134 135H56C55.4473 135 55 134.553 55 134C55 133.447 55.4473 133 56 133H59.7881V127.33C57.0724 126.854 55 124.485 55 121.635C55 119.445 56.2231 117.535 58.0218 116.552C56.2231 115.569 55 113.66 55 111.47C55 108.277 57.5967 105.681 60.7881 105.681C63.9795 105.681 66.5762 108.277 66.5762 111.47C66.5762 113.66 65.353 115.569 63.5544 116.552C65.353 117.535 66.5762 119.445 66.5762 121.635C66.5762 124.485 64.5037 126.854 61.7881 127.33V133H74.2051V127.33C71.4894 126.854 69.417 124.485 69.417 121.635C69.417 118.443 72.0137 115.847 75.2051 115.847C78.3965 115.847 80.9932 118.443 80.9932 121.635C80.9932 124.485 78.9207 126.854 76.2051 127.33V133H83.833V88.1875C83.833 87.6348 84.2803 87.1875 84.833 87.1875H93.3711V65.625C93.3711 65.0723 93.8184 64.625 94.3711 64.625H104.117V56C104.117 55.4473 104.564 55 105.117 55C105.67 55 106.117 55.4473 106.117 56V64.625H115.538C116.091 64.625 116.538 65.0723 116.538 65.625V74.5149L130.792 68.4551C131.102 68.3232 131.455 68.3545 131.735 68.541C132.016 68.7266 132.184 69.0391 132.184 69.375V133ZM75.2051 117.847C73.1162 117.847 71.417 119.546 71.417 121.635C71.417 123.724 73.1162 125.423 75.2051 125.423C77.2939 125.423 78.9932 123.724 78.9932 121.635C78.9932 119.546 77.2939 117.847 75.2051 117.847ZM64.5762 111.47C64.5762 109.381 62.877 107.681 60.7881 107.681C58.6992 107.681 57 109.381 57 111.47C57 113.559 58.6992 115.258 60.7881 115.258C62.877 115.258 64.5762 113.559 64.5762 111.47ZM60.7881 117.847C58.6992 117.847 57 119.546 57 121.635C57 123.724 58.6992 125.423 60.7881 125.423C62.877 125.423 64.5762 123.724 64.5762 121.635C64.5762 119.546 62.877 117.847 60.7881 117.847ZM124.54 133H130.184V70.8867L105.282 81.4727V133H110.927V122.952C110.927 122.399 111.374 121.952 111.927 121.952H123.54C124.093 121.952 124.54 122.399 124.54 122.952V133ZM112.927 133H122.54V123.952H112.927V133ZM114.538 74.25V66.625H95.3711V74.25H114.538ZM112.457 76.25H95.3711V87.1875H103.282V80.8115C103.282 80.4102 103.521 80.0479 103.891 79.8916L112.457 76.25ZM103.282 89.1875H85.833V133H103.282V89.1875ZM124.886 103.398H110.581C110.028 103.398 109.581 102.951 109.581 102.398C109.581 101.846 110.028 101.398 110.581 101.398H124.886C125.438 101.398 125.886 101.846 125.886 102.398C125.886 102.951 125.438 103.398 124.886 103.398ZM91.623 94C91.0703 94 90.623 94.4473 90.623 95V97.6025C90.623 98.1553 91.0703 98.6025 91.623 98.6025C92.1758 98.6025 92.623 98.1553 92.623 97.6025V95C92.623 94.4473 92.1758 94 91.623 94ZM96.5205 95C96.5205 94.4473 96.9678 94 97.5205 94C98.0732 94 98.5205 94.4473 98.5205 95V97.6025C98.5205 98.1553 98.0732 98.6025 97.5205 98.6025C96.9678 98.6025 96.5205 98.1553 96.5205 97.6025V95ZM91.623 101.398C91.0703 101.398 90.623 101.846 90.623 102.398V105.002C90.623 105.555 91.0703 106.002 91.623 106.002C92.1758 106.002 92.623 105.555 92.623 105.002V102.398C92.623 101.846 92.1758 101.398 91.623 101.398ZM96.5205 102.398C96.5205 101.846 96.9678 101.398 97.5205 101.398C98.0732 101.398 98.5205 101.846 98.5205 102.398V105.002C98.5205 105.555 98.0732 106.002 97.5205 106.002C96.9678 106.002 96.5205 105.555 96.5205 105.002V102.398ZM91.623 108.798C91.0703 108.798 90.623 109.245 90.623 109.798V112.4C90.623 112.953 91.0703 113.4 91.623 113.4C92.1758 113.4 92.623 112.953 92.623 112.4V109.798C92.623 109.245 92.1758 108.798 91.623 108.798ZM96.5205 109.798C96.5205 109.245 96.9678 108.798 97.5205 108.798C98.0732 108.798 98.5205 109.245 98.5205 109.798V112.4C98.5205 112.953 98.0732 113.4 97.5205 113.4C96.9678 113.4 96.5205 112.953 96.5205 112.4V109.798ZM91.623 116.197C91.0703 116.197 90.623 116.645 90.623 117.197V119.8C90.623 120.353 91.0703 120.8 91.623 120.8C92.1758 120.8 92.623 120.353 92.623 119.8V117.197C92.623 116.645 92.1758 116.197 91.623 116.197ZM96.5205 117.197C96.5205 116.645 96.9678 116.197 97.5205 116.197C98.0732 116.197 98.5205 116.645 98.5205 117.197V119.8C98.5205 120.353 98.0732 120.8 97.5205 120.8C96.9678 120.8 96.5205 120.353 96.5205 119.8V117.197ZM91.623 123.596C91.0703 123.596 90.623 124.043 90.623 124.596V127.199C90.623 127.752 91.0703 128.199 91.623 128.199C92.1758 128.199 92.623 127.752 92.623 127.199V124.596C92.623 124.043 92.1758 123.596 91.623 123.596ZM96.5205 124.596C96.5205 124.043 96.9678 123.596 97.5205 123.596C98.0732 123.596 98.5205 124.043 98.5205 124.596V127.199C98.5205 127.752 98.0732 128.199 97.5205 128.199C96.9678 128.199 96.5205 127.752 96.5205 127.199V124.596ZM110.581 109.398H124.886C125.438 109.398 125.886 108.951 125.886 108.398C125.886 107.846 125.438 107.398 124.886 107.398H110.581C110.028 107.398 109.581 107.846 109.581 108.398C109.581 108.951 110.028 109.398 110.581 109.398ZM124.886 115.398H110.581C110.028 115.398 109.581 114.951 109.581 114.398C109.581 113.846 110.028 113.398 110.581 113.398H124.886C125.438 113.398 125.886 113.846 125.886 114.398C125.886 114.951 125.438 115.398 124.886 115.398ZM110.581 91.3008H124.886C125.438 91.3008 125.886 90.8535 125.886 90.3008C125.886 89.748 125.438 89.3008 124.886 89.3008H110.581C110.028 89.3008 109.581 89.748 109.581 90.3008C109.581 90.8535 110.028 91.3008 110.581 91.3008ZM124.886 97.3008H110.581C110.028 97.3008 109.581 96.8535 109.581 96.3008C109.581 95.748 110.028 95.3008 110.581 95.3008H124.886C125.438 95.3008 125.886 95.748 125.886 96.3008C125.886 96.8535 125.438 97.3008 124.886 97.3008ZM83.3457 68.5234H77.416C77.1035 66.8359 76.0137 65.3779 74.4688 64.6025C74.2627 60.9268 71.2246 58 67.5205 58C63.6826 58 60.5605 61.1406 60.5605 65V65.0215C57.4873 64.9707 54.9287 67.4521 54.9287 70.5439C54.9287 71.0967 55.376 71.5439 55.9287 71.5439C56.4814 71.5439 56.9287 71.0967 56.9287 70.5439C56.9287 68.6006 58.4961 67.0195 60.4229 67.0195C60.7168 67.0195 61.0273 67.0713 61.4023 67.1816C61.7383 67.2812 62.1045 67.1973 62.3633 66.958C62.6221 66.7197 62.7363 66.3633 62.665 66.0195C62.5957 65.6865 62.5605 65.3438 62.5605 65C62.5605 62.2432 64.7852 60 67.5205 60C70.2549 60 72.4795 62.2432 72.4795 65L72.4746 65.1045C72.4736 65.1113 72.4678 65.2119 72.4678 65.2188C72.4482 65.6602 72.7217 66.0635 73.1396 66.208C74.5566 66.6973 75.5078 68.0303 75.5078 69.5234C75.5078 70.0762 75.9551 70.5234 76.5078 70.5234H83.3457C83.8984 70.5234 84.3457 70.0762 84.3457 69.5234C84.3457 68.9707 83.8984 68.5234 83.3457 68.5234ZM83.833 83.3027C83.833 82.2607 83.168 81.3301 82.1797 80.9873C81.7617 80.8418 81.4883 80.4404 81.5078 79.999L81.5166 79.8408C81.5166 77.8604 79.9189 76.25 77.9561 76.25C75.9932 76.25 74.3955 77.8604 74.3955 79.8408C74.3955 80.0869 74.4209 80.334 74.4707 80.5752C74.542 80.9199 74.4268 81.2764 74.167 81.5137C73.9082 81.752 73.542 81.8369 73.2061 81.7354C72.9434 81.6572 72.7266 81.6211 72.5254 81.6211C71.1807 81.6211 70.0869 82.7256 70.0869 84.083C70.0869 84.6357 69.6396 85.083 69.0869 85.083C68.5342 85.083 68.0869 84.6357 68.0869 84.083C68.0869 81.665 70.0098 79.6895 72.3994 79.623C72.5137 76.6406 74.9629 74.25 77.9561 74.25C80.8711 74.25 83.2695 76.5166 83.499 79.3896C84.9189 80.1592 85.833 81.6533 85.833 83.3027C85.833 83.8555 85.3857 84.3027 84.833 84.3027C84.2803 84.3027 83.833 83.8555 83.833 83.3027Z" fill="#979797"/>
</svg>
