<svg xmlns="http://www.w3.org/2000/svg" width="250" height="74.511" viewBox="0 0 250 74.511">
    <defs>
        <style>
            .cls-1{fill:#fff}
        </style>
    </defs>
    <g id="ic_splash_logo" transform="translate(-28 -372)">
        <g id="Group_4567" transform="translate(28 372)">
            <path id="Path_4764" d="M325.4 36.306a16.259 16.259 0 0 0-3.629-6.137c-4.8-4.8-12.82-5.39-18.849-2.8-2.134.911-5.242 2.757-6.356 4.829-1.76-1.371-2.025-2.687-5.234-4.432-6.036-3.271-14.347-2.3-19.254 2.562a4.766 4.766 0 0 0-1.16-2.765 4.536 4.536 0 0 0-6.246.164 5.085 5.085 0 0 0-1 3.536v34.765c.008 2.594.974 4.821 3.925 4.86a6.357 6.357 0 0 0 1.682-.117c3.583-1.036 2.8-5.8 2.8-8.669V47.148c0-4.128-.366-7.314 2.648-10.655 3.419-3.785 10.211-4.229 13.77-.366 1.854 2.017 2.461 4.993 2.461 7.656V66.4a4.1 4.1 0 0 0 2.43 4.253 4.958 4.958 0 0 0 4.642-.74 3.966 3.966 0 0 0 1.153-3.326v-18.13c0-3.544-.265-7.314 1.651-10.468a10.569 10.569 0 0 1 4.144-3.754 9.752 9.752 0 0 1 10.46 1.706 10.552 10.552 0 0 1 2.625 7.469v22.805c.008 3.069 1.308 4.712 4.486 4.673 2.929-.039 3.894-2.282 3.925-4.86V49.017c-.001-3.995.147-8.902-1.074-12.711z" class="cls-1" transform="translate(-76.622 -22)"/>
            <g id="Group_4565" transform="translate(82.554 3.97)">
                <path id="Path_4765" d="M167.262 31.7a23.214 23.214 0 0 0-30.469 0 22.784 22.784 0 0 0-7.282 16.792v36.64a4.894 4.894 0 0 0 1.153 3.7 4.458 4.458 0 0 0 6.535-.53 5.406 5.406 0 0 0 .717-3.17V64.009a20.423 20.423 0 0 0 28.413 2.905 22.1 22.1 0 0 0 6.433-8.895 23.284 23.284 0 0 0 1.581-7.282v-5.046a22.722 22.722 0 0 0-7.081-13.991zm-7.29 29.862c-3.131 2.1-5.538 2.3-9.159 2.251a11.628 11.628 0 0 1-5.047-1.262 14.6 14.6 0 0 1-3.91-2.679c-4.658-4.65-5.53-12.641-2.757-18.482a13.909 13.909 0 0 1 8.91-7.524l2.617-.46a15.57 15.57 0 0 1 5.234.452 14.151 14.151 0 0 1 7.384 4.915c5.334 6.785 3.986 17.927-3.273 22.791z" class="cls-1" transform="translate(-129.51 -26.004)"/>
            </g>
            <g id="Group_4566" transform="translate(133.762 3.955)">
                <path id="Path_4766" d="M233.548 32.305c-9.37-9-25.048-8.381-33.343 1.791-3.777 4.642-5.016 9.845-4.946 15.694a24.564 24.564 0 0 0 1.246 6.916c3 9.019 10.515 14.7 20.064 14.588a26.151 26.151 0 0 0 5.421-.826c4.26-1.207 6.854-3.411 9.907-6.465v2.43c0 1.589.28 2.905 1.69 3.879a3.469 3.469 0 0 0 2.235.608c2.516.023 4.268-1.285 4.3-3.925V47.361a22.362 22.362 0 0 0-6.574-15.056zm-1.464 17.486a14.586 14.586 0 0 1-6.916 12.15c-2.882 1.776-5.343 1.916-8.6 1.869-4.938-.047-9.736-3.653-11.8-8.03a16.563 16.563 0 0 1-1.472-7.851 14.91 14.91 0 0 1 7.477-12.843 14.358 14.358 0 0 1 5.608-1.682 15.5 15.5 0 0 1 5.421.475 14.448 14.448 0 0 1 10.281 13.3z" class="cls-1" transform="translate(-195.256 -25.985)"/>
            </g>
            <path id="Path_4767" d="M89.473 39.96a5.114 5.114 0 0 0-1.464-1.083l-2.991-1.767-14.206-8.51-9.912-5.915c-1.27-.755-2.773-2.087-4.3-1.714l-8.973 4.922-16.257 9.051-4.86 2.726a7.71 7.71 0 0 0-2.274 1.5 3.579 3.579 0 0 0-.343 2.017V52.78l-.187 2.8v12.15l-.187 2.991v4.112a3.141 3.141 0 0 0 .187 1.456 4.377 4.377 0 0 0 1.5 1.114l2.991 1.737 14.763 8.65 10.094 5.927c.935.561 2.858 2.025 3.925 1.636l2.991-1.659 5.421-3.069 16.637-9.51 5.234-2.991a8.485 8.485 0 0 0 2.056-1.324 2.915 2.915 0 0 0 .187-1.4V63.622l.187-2.8V41.565a3.371 3.371 0 0 0-.219-1.605zM68.008 27.919l13.085 7.82 7.664 4.517L86 46.051l-4.533 8.973-5.187-7.29-11.4-16.45-4.162-5.984c-.452-.67-1.355-1.62-1.308-2.43zm-10.655-5.982l3.816 5.421 9.082 13.085 6.356 9.157 3.552 5.234-10.282-5.356L55.11 41.7l-6.356-3.36-2.43-1.262c.491-1.277 3.154-4.658 4.136-5.982L54.7 25.3a21.376 21.376 0 0 1 2.653-3.363zm22.805 34.021l-6.542 1.62L62.4 60.242l-17.2 4.112-9.346 2.259 2.111-6.169L42.9 46.238l2.866-8.412 6.916 3.5 11.963 6.356 9.907 5.242zM32.492 35.342l8.408-4.674 9.72-5.421 4.86-2.562-6.838 9.533-3.154 4.128-1.784.389-3.365.4-13.455 1.439zm-.748 3.637l13.272-1.527L41.1 48.855l-1.262 3.739-4.729 13.458-1.386-3.365-2.43-6.356L25.015 39.7zm-7.29 30.438l.187-2.991V53.715l.187-3.178v-4.486l.187-4.112L27.85 49.6l3.972 10.468 1.791 4.673a5.336 5.336 0 0 1 .6 2.243c-.179.709-1.861 1.908-2.469 2.4l-7.29 5.826zm22.431 19.635l-13.459-7.859-8.412-4.86a8.526 8.526 0 0 1 2.617-2.578l4.86-3.964c.522-.421 1.924-1.815 2.594-1.62.475.14 1.176 1.207 1.5 1.62l3.45 4.486 9.4 12.337c1.044 1.355 4.393 5.483 4.93 6.729zm9.72 5.226h-.374l-5.53-7.29L41.862 75.4l-3.575-4.673a12.888 12.888 0 0 1-2.243-3.365l3.925-.849 9.72-2.344 19.44-4.634 11.216-2.64-5.857 9.346-11.846 18.504zm29.721-16.66l-5.234 3.014-14.954 8.5-5.047 2.882-2.991 1.517 1.643-2.8 3.949-6.169 11.73-18.319 5.67-8.973h.374l5.172 14.02 1.262 3.361.358 1.612zM88.757 45.3v20.752l-.187 3.178v4.486A27.856 27.856 0 0 1 87 69.791l-2.858-7.664-2.033-5.608c-.14-.958 1-2.827 1.464-3.739l3.458-6.916a13.975 13.975 0 0 1 1.913-3.364z" class="cls-1" transform="translate(-23.517 -20.907)"/>
            <path id="Path_4768" d="M64.743 22.954h-.187l.187.187z" class="cls-1" transform="translate(-32.592 -21.36)"/>
            <path id="Path_4769" d="M69.3 23.194h-.187l.187.187z" class="cls-1" transform="translate(-33.6 -21.413)"/>
            <path id="Path_4770" d="M67.863 114.154h-.187l.187.187z" class="cls-1" transform="translate(-33.282 -41.527)"/>
            <path id="Path_4771" d="M241.239 94.919a4.213 4.213 0 0 0-3.552 1.48v-3.178c-.008-.475.078-1.394-.428-1.651-.732-.382-.693.911-.693 1.277-.016 2.243-.537 6.005.21 8.038 1.207 3.271 6.239 3.528 7.828.374a4.3 4.3 0 0 0-3.365-6.34zm-.748 7.438c-3.443-.234-3.972-5.374-.374-6.27a3.447 3.447 0 0 1 2.243.327c2.594 1.496 1.846 6.208-1.869 5.943z" class="cls-1" transform="translate(-70.587 -36.518)"/>
            <path id="Rectangle_3018" d="M0 0H1.308V11.403H0z" class="cls-1" transform="translate(213.175 56.141)"/>
            <path id="Path_4772" d="M272.075 94.8c-1.643-1.207-4.541-.865-6.535-.865v10.655c1.908 0 4.743.3 6.356-.748a4.257 4.257 0 0 0 1.869-3.925c.008-2 .148-3.776-1.69-5.117zm-1.3 8.295c-.927.553-2.827.374-3.925.374v-8.41c1.316 0 3.217-.2 4.292.639 1.958 1.542 1.805 6.082-.368 7.402z" class="cls-1" transform="translate(-77.037 -37.046)"/>
            <path id="Path_4773" d="M307.3 93.948l1.583.185 1.632 2.432 3.514 5.795v-8.412h1.122V104.6c-1.8-.023-1.7-.65-2.767-2.43l-3.776-6.356v8.786H307.3z" class="cls-1" transform="translate(-86.271 -37.059)"/>
            <path id="Path_4774" d="M257.162 96.093a10.768 10.768 0 0 1-1.122 2.991l-2.912 6.356a16.053 16.053 0 0 1-1.079 2.187c-.217.271-.6.5-.86.129-.241-.346 0-.858.138-1.194a12.691 12.691 0 0 0 1.016-2.617 6.557 6.557 0 0 0-.71-1.869l-2.087-4.3c-.153-.329-.791-2.144.3-1.65.533.241 1 1.492 1.228 2.024a44.56 44.56 0 0 0 2.164 4.3l2.082-4.673c.463-1.041.521-1.904 1.842-1.684z" class="cls-1" transform="translate(-73.428 -37.521)"/>
            <path id="Path_4775" d="M283.767 98.28a3.447 3.447 0 0 0-4.751 0 4.5 4.5 0 0 0-1 2.96c-.031 1.55.312 3.186 1.869 3.887.958.428 3.614.623 4.3-.28a1.792 1.792 0 0 0 .187-.989c-1.456.561-3.427 1.075-4.556-.4a5.518 5.518 0 0 1-.678-1.659h5.421c.003-1.283.159-2.514-.792-3.519zm-4.626 2.4a3.854 3.854 0 0 1 .818-1.791 2.153 2.153 0 0 1 1.238-.537c1.534-.171 2.041 1.059 2.243 2.329z" class="cls-1" transform="translate(-79.796 -37.807)"/>
            <path id="Path_4776" d="M288.1 104.038a7.278 7.278 0 0 0 2.43.366c1.284-.075 2.161-1.015 1.094-1.97-.821-.737-4.122-.845-3.37-3.443.413-1.43 1.708-1.733 3.024-1.675a2.11 2.11 0 0 1 1.5.5 1.428 1.428 0 0 1 .185.8l-1.5-.18c-.794-.072-2.307.075-1.933 1.292.2.654.984.873 1.559 1.069 1.3.442 2.482.809 2.357 2.492a3.04 3.04 0 0 1-.235.927c-.914 1.924-4.4 1.327-4.927.625a1.426 1.426 0 0 1-.184-.803z" class="cls-1" transform="translate(-82.025 -37.802)"/>
            <path id="Path_4777" d="M325.961 98.131a3.906 3.906 0 0 0-3.326-.724c-3.63 1.168-3.591 7.843.748 8.116 4.549.272 4.456-5.723 2.578-7.392zm-.935 5.958a2.607 2.607 0 0 1-1.643.319c-1.784-.1-2.056-1.5-2.056-2.983 0-1.316.148-2.36 1.5-2.913a2.873 2.873 0 0 1 2.383.374c1.133 1.005 1.063 4.284-.183 5.203z" class="cls-1" transform="translate(-89.083 -37.805)"/>
            <path id="Path_4778" d="M303.666 105.4c-1.869-.024-2.211-1.058-3.35-2.43-.343-.415-1.019-1.116-.983-1.682.032-.512.622-1.118.944-1.5 1.151-1.35 1.355-2.219 3.2-2.243l-1.854 2.43-.82 1.2.843 1.417z" class="cls-1" transform="translate(-84.509 -37.855)"/>
            <path id="Path_4779" d="M330.817 97.548h1.309l1.682 6.169 1.3-4.486c.152-.5.28-1.344.8-1.569.862-.37 1.081.611 1.264 1.195a35.157 35.157 0 0 1 1.3 4.86h.374l1.308-6.169h1.309l-1.5 5.421-.734 2.131-1.322.3-1.856-5.8-1.682 5.795-1.322-.3-.738-2.131z" class="cls-1" transform="translate(-91.472 -37.855)"/>
        </g>
    </g>
</svg>
